<?xml version="1.0" encoding="UTF-8" standalone="no"?>
<!-- Created with Serif DrawPlus 11, 0, 3, 23 (Feb 25, 14:12:55) (http://www.serif.com) -->

<svg
   xmlns:dc="http://purl.org/dc/elements/1.1/"
   xmlns:cc="http://creativecommons.org/ns#"
   xmlns:rdf="http://www.w3.org/1999/02/22-rdf-syntax-ns#"
   xmlns:svg="http://www.w3.org/2000/svg"
   xmlns="http://www.w3.org/2000/svg"
   xmlns:sodipodi="http://sodipodi.sourceforge.net/DTD/sodipodi-0.dtd"
   xmlns:inkscape="http://www.inkscape.org/namespaces/inkscape"
   version="1.1"
   width="207.3333"
   height="207.33299"
   id="svg2"
   inkscape:version="0.48.4 r9939"
   sodipodi:docname="chip_eye_black.svg">
  <metadata
     id="metadata61">
    <rdf:RDF>
      <cc:Work
         rdf:about="">
        <dc:format>image/svg+xml</dc:format>
        <dc:type
           rdf:resource="http://purl.org/dc/dcmitype/StillImage" />
        <dc:title></dc:title>
      </cc:Work>
    </rdf:RDF>
  </metadata>
  <sodipodi:namedview
     pagecolor="#ffffff"
     bordercolor="#666666"
     borderopacity="1"
     objecttolerance="10"
     gridtolerance="10"
     guidetolerance="10"
     inkscape:pageopacity="0"
     inkscape:pageshadow="2"
     inkscape:window-width="1535"
     inkscape:window-height="1176"
     id="namedview59"
     showgrid="false"
     fit-margin-top="0"
     fit-margin-left="0"
     fit-margin-right="0"
     fit-margin-bottom="0"
     inkscape:zoom="17.422198"
     inkscape:cx="107.09177"
     inkscape:cy="17.270989"
     inkscape:window-x="65"
     inkscape:window-y="24"
     inkscape:window-maximized="1"
     inkscape:current-layer="dp_group001" />
  <defs
     id="defs4">
    <radialGradient
       id="grad_dp_001"
       gradientUnits="userSpaceOnUse"
       cx="168.145"
       cy="644.841"
       r="103.077">
      <stop
         offset="0"
         stop-color="white"
         id="stop7" />
      <stop
         offset="1"
         stop-color="#d6d6d6"
         id="stop9" />
    </radialGradient>
    <radialGradient
       id="grad_dp_002"
       gradientUnits="userSpaceOnUse"
       cx="168.379"
       cy="644.00897"
       r="81.015999">
      <stop
         offset="0"
         stop-color="white"
         id="stop12" />
      <stop
         offset="1"
         stop-color="#1e1e1e"
         id="stop14" />
    </radialGradient>
  </defs>
  <g
     id="dp_group001"
     transform="translate(-64.4787,-541.175)">
    <path
       id="dp_path003"
       d="m 168.145,542.175 c 56.702,0 102.667,45.965 102.667,102.666 0,56.702 -45.965,102.667 -102.667,102.667 -56.701,0 -102.6663,-45.965 -102.6663,-102.667 0,-56.701 45.9653,-102.666 102.6663,-102.666 z"
       inkscape:connector-curvature="0"
       style="fill:url(#grad_dp_001);fill-rule:evenodd;stroke:#196480;stroke-width:2" />
    <path
       id="dp_path004"
       d="m 168.379,563.316 c 44.565,0 80.692,36.127 80.692,80.692 0,44.565 -36.127,80.692 -80.692,80.692 -44.566,0 -80.6923,-36.127 -80.6923,-80.692 0,-44.565 36.1263,-80.692 80.6923,-80.692 z"
       inkscape:connector-curvature="0"
       style="fill:url(#grad_dp_002);fill-rule:evenodd;stroke:#196480;stroke-width:2" />
    <g
       id="dp_group005">
      <g
         id="dp_group006">
        <path
           id="dp_path007"
           d="m 169.279,544.775 1.469,4.036 3.131,-1.05 -1.055,3.118 4.055,1.462 -4.055,1.463 1.055,3.117 -3.131,-1.049 -1.469,4.036 -1.47,-4.036 -3.13,1.049 1.054,-3.117 -4.054,-1.463 4.054,-1.462 -1.054,-3.118 3.13,1.05 z"
           inkscape:connector-curvature="0"
           style="fill:#000000;fill-rule:evenodd" />
        <path
           id="dp_path008"
           d="m 260.779,637.508 1.462,4.036 3.118,-1.049 -1.05,3.117 4.036,1.463 -4.036,1.462 1.05,3.118 -3.118,-1.05 -1.462,4.036 -1.463,-4.036 -3.117,1.05 1.049,-3.118 -4.036,-1.462 4.036,-1.463 -1.049,-3.117 3.117,1.049 z"
           inkscape:connector-curvature="0"
           style="fill:#000000;fill-rule:evenodd" />
        <path
           id="dp_path009"
           d="m 256.279,610.241 1.469,4.036 3.131,-1.049 -1.055,3.117 4.055,1.463 -4.055,1.463 1.055,3.117 -3.131,-1.049 -1.469,4.036 -1.47,-4.036 -3.13,1.049 1.054,-3.117 -4.054,-1.463 4.054,-1.463 -1.054,-3.117 3.13,1.049 z"
           inkscape:connector-curvature="0"
           style="fill:#000000;fill-rule:evenodd" />
        <path
           id="dp_path010"
           d="m 199.312,550.508 1.463,4.036 3.117,-1.049 -1.049,3.117 4.036,1.463 -4.036,1.462 1.049,3.118 -3.117,-1.05 -1.463,4.036 -1.463,-4.036 -3.117,1.05 1.049,-3.118 -4.036,-1.462 4.036,-1.463 -1.049,-3.117 3.117,1.049 z"
           inkscape:connector-curvature="0"
           style="fill:#000000;fill-rule:evenodd" />
        <path
           id="dp_path011"
           d="m 225.345,564.308 1.47,4.036 3.13,-1.049 -1.054,3.117 4.054,1.463 -4.054,1.462 1.054,3.118 -3.13,-1.05 -1.47,4.036 -1.469,-4.036 -3.131,1.05 1.055,-3.118 -4.055,-1.462 4.055,-1.463 -1.055,-3.117 3.131,1.049 z"
           inkscape:connector-curvature="0"
           style="fill:#000000;fill-rule:evenodd" />
        <path
           id="dp_path012"
           d="m 243.645,583.841 1.463,4.055 3.117,-1.055 -1.049,3.131 4.036,1.469 -4.036,1.47 1.049,3.13 -3.117,-1.054 -1.463,4.054 -1.462,-4.054 -3.118,1.054 1.05,-3.13 -4.036,-1.47 4.036,-1.469 -1.05,-3.131 3.118,1.055 z"
           inkscape:connector-curvature="0"
           style="fill:#000000;fill-rule:evenodd" />
      </g>
      <path
         id="dp_path013"
         d="m 75.512,637.641 -1.4627,4.036 -3.1173,-1.049 1.0493,3.117 -4.036,1.463 4.036,1.463 -1.0493,3.117 3.1173,-1.049 1.4627,4.036 1.4627,-4.036 3.1173,1.049 -1.0493,-3.117 4.036,-1.463 -4.036,-1.463 1.0493,-3.117 -3.1173,1.049 z"
         inkscape:connector-curvature="0"
         style="fill:#000000;fill-rule:evenodd" />
      <path
         id="dp_path014"
         d="m 80.012,610.375 -1.4693,4.036 -3.1307,-1.05 1.0547,3.118 -4.0547,1.462 4.0547,1.463 -1.0547,3.117 3.1307,-1.049 1.4693,4.036 1.4693,-4.036 3.1307,1.049 -1.0547,-3.117 4.0547,-1.463 -4.0547,-1.462 1.0547,-3.118 -3.1307,1.05 z"
         inkscape:connector-curvature="0"
         style="fill:#000000;fill-rule:evenodd" />
      <path
         id="dp_path015"
         d="m 136.979,550.641 -1.463,4.036 -3.117,-1.049 1.049,3.117 -4.036,1.463 4.036,1.463 -1.049,3.117 3.117,-1.049 1.463,4.036 1.462,-4.036 3.118,1.049 -1.05,-3.117 4.036,-1.463 -4.036,-1.463 1.05,-3.117 -3.118,1.049 z"
         inkscape:connector-curvature="0"
         style="fill:#000000;fill-rule:evenodd" />
      <path
         id="dp_path016"
         d="m 110.945,564.441 -1.469,4.036 -3.131,-1.049 1.055,3.117 -4.055,1.463 4.055,1.463 -1.055,3.117 3.131,-1.049 1.469,4.036 1.47,-4.036 3.13,1.049 -1.054,-3.117 4.054,-1.463 -4.054,-1.463 1.054,-3.117 -3.13,1.049 z"
         inkscape:connector-curvature="0"
         style="fill:#000000;fill-rule:evenodd" />
      <path
         id="dp_path017"
         d="m 92.6453,583.975 -1.4626,4.036 -3.1174,-1.05 1.0494,3.118 -4.036,1.462 4.036,1.463 -1.0494,3.117 3.1174,-1.049 1.4626,4.036 1.4627,-4.036 3.1173,1.049 -1.0493,-3.117 4.036,-1.463 -4.036,-1.462 1.0493,-3.118 -3.1173,1.05 z"
         inkscape:connector-curvature="0"
         style="fill:#000000;fill-rule:evenodd" />
    </g>
    <path
       id="dp_path018"
       d="m 80.012,679.308 -1.4693,-4.036 -3.1307,1.049 1.0547,-3.117 -4.0547,-1.463 4.0547,-1.462 -1.0547,-3.118 3.1307,1.05 1.4693,-4.036 1.4693,4.036 3.1307,-1.05 -1.0547,3.118 4.0547,1.462 -4.0547,1.463 1.0547,3.117 -3.1307,-1.049 z"
       inkscape:connector-curvature="0"
       style="fill:#000000;fill-rule:evenodd" />
    <path
       id="dp_path019"
       d="m 136.979,739.041 -1.463,-4.036 -3.117,1.05 1.049,-3.118 -4.036,-1.462 4.036,-1.463 -1.049,-3.117 3.117,1.049 1.463,-4.036 1.462,4.036 3.118,-1.049 -1.05,3.117 4.036,1.463 -4.036,1.462 1.05,3.118 -3.118,-1.05 z"
       inkscape:connector-curvature="0"
       style="fill:#000000;fill-rule:evenodd" />
    <path
       id="dp_path020"
       d="m 110.945,725.308 -1.469,-4.055 -3.131,1.055 1.055,-3.131 -4.055,-1.469 4.055,-1.469 -1.055,-3.131 3.131,1.055 1.469,-4.055 1.47,4.055 3.13,-1.055 -1.054,3.131 4.054,1.469 -4.054,1.469 1.054,3.131 -3.13,-1.055 z"
       inkscape:connector-curvature="0"
       style="fill:#000000;fill-rule:evenodd" />
    <path
       id="dp_path021"
       d="m 92.6453,705.708 -1.4626,-4.036 -3.1174,1.049 1.0494,-3.117 -4.036,-1.463 4.036,-1.462 -1.0494,-3.118 3.1174,1.05 1.4626,-4.036 1.4627,4.036 3.1173,-1.05 -1.0493,3.118 4.036,1.462 -4.036,1.463 1.0493,3.117 -3.1173,-1.049 z"
       inkscape:connector-curvature="0"
       style="fill:#000000;fill-rule:evenodd" />
    <path
       id="dp_path022"
       d="m 169.279,744.908 1.469,-4.036 3.131,1.049 -1.055,-3.117 4.055,-1.463 -4.055,-1.462 1.055,-3.118 -3.131,1.05 -1.469,-4.036 -1.47,4.036 -3.13,-1.05 1.054,3.118 -4.054,1.462 4.054,1.463 -1.054,3.117 3.13,-1.049 z"
       inkscape:connector-curvature="0"
       style="fill:#000000;fill-rule:evenodd" />
    <path
       id="dp_path023"
       d="m 256.279,679.441 1.469,-4.036 3.131,1.05 -1.055,-3.118 4.055,-1.462 -4.055,-1.463 1.055,-3.117 -3.131,1.049 -1.469,-4.036 -1.47,4.036 -3.13,-1.049 1.054,3.117 -4.054,1.463 4.054,1.462 -1.054,3.118 3.13,-1.05 z"
       inkscape:connector-curvature="0"
       style="fill:#000000;fill-rule:evenodd" />
    <path
       id="dp_path024"
       d="m 199.312,739.175 1.463,-4.036 3.117,1.049 -1.049,-3.117 4.036,-1.463 -4.036,-1.463 1.049,-3.117 -3.117,1.049 -1.463,-4.036 -1.463,4.036 -3.117,-1.049 1.049,3.117 -4.036,1.463 4.036,1.463 -1.049,3.117 3.117,-1.049 z"
       inkscape:connector-curvature="0"
       style="fill:#000000;fill-rule:evenodd" />
    <path
       id="dp_path025"
       d="m 225.345,725.375 1.47,-4.036 3.13,1.049 -1.054,-3.117 4.054,-1.463 -4.054,-1.463 1.054,-3.117 -3.13,1.049 -1.47,-4.036 -1.469,4.036 -3.131,-1.049 1.055,3.117 -4.055,1.463 4.055,1.463 -1.055,3.117 3.131,-1.049 z"
       inkscape:connector-curvature="0"
       style="fill:#000000;fill-rule:evenodd" />
    <path
       id="dp_path026"
       d="m 243.645,705.841 1.463,-4.036 3.117,1.05 -1.049,-3.118 4.036,-1.462 -4.036,-1.463 1.049,-3.117 -3.117,1.049 -1.463,-4.036 -1.462,4.036 -3.118,-1.049 1.05,3.117 -4.036,1.463 4.036,1.462 -1.05,3.118 3.118,-1.05 z"
       inkscape:connector-curvature="0"
       style="fill:#000000;fill-rule:evenodd" />
  </g>
</svg>
